<svg width="81" height="40" viewBox="0 0 81 40" fill="none" xmlns="http://www.w3.org/2000/svg">
<path d="M12.864 20.288C14.752 20.288 16.288 18.688 16.288 16.8C16.288 14.912 14.752 13.376 12.864 13.376H6.848V20.288H12.864ZM2.016 32.576V8.32H12.704C17.408 8.32 21.152 12.096 21.152 16.8C21.152 21.44 17.408 25.28 12.704 25.28H6.848V32.576H2.016ZM23.0718 7.616H27.8718V32.704H23.0718V7.616ZM39.0808 28.256C41.1288 28.256 42.9208 26.464 42.9528 24.096C42.9208 21.696 41.1288 19.904 39.0808 19.904C36.3608 19.904 35.2088 21.696 35.2088 24.096C35.2088 26.496 36.3608 28.256 39.0808 28.256ZM30.3448 24.096C30.3448 19.392 33.3208 15.36 38.5688 15.36C40.3288 15.36 42.0568 16.128 43.2728 17.536V15.296H48.1368V32.512L43.2728 32.544V30.688C42.0568 32.064 40.3288 32.832 38.5688 32.832C33.3208 32.832 30.3448 28.8 30.3448 24.096ZM64.4283 23.744C64.4283 21.408 63.3403 19.904 60.4923 19.904C58.5083 19.904 56.8443 21.408 56.9403 23.744V32.544H52.1403V15.264H56.9403V17.376C57.7723 15.776 60.0763 15.264 61.0683 15.264C65.0683 15.264 69.2283 17.152 69.2283 22.912V32.544H64.4283V23.744ZM73.0578 15.072H77.7938V32.704H73.0578V15.072ZM72.8978 8.896C72.8978 7.488 73.7938 6.368 75.4258 6.368C77.0578 6.368 77.9538 7.488 77.9538 8.896C77.9538 10.304 77.0578 11.424 75.4258 11.424C73.7938 11.424 72.8978 10.304 72.8978 8.896Z" fill="white"/>
<path d="M6.848 13.376V12.876H6.348V13.376H6.848ZM6.848 20.288H6.348V20.788H6.848V20.288ZM2.016 32.576H1.516V33.076H2.016V32.576ZM2.016 8.32V7.82H1.516V8.32H2.016ZM6.848 25.28V24.78H6.348V25.28H6.848ZM6.848 32.576V33.076H7.348V32.576H6.848ZM12.864 20.788C15.0401 20.788 16.788 18.9521 16.788 16.8H15.788C15.788 18.4239 14.4639 19.788 12.864 19.788V20.788ZM16.788 16.8C16.788 14.6359 15.0281 12.876 12.864 12.876V13.876C14.4759 13.876 15.788 15.1881 15.788 16.8H16.788ZM12.864 12.876H6.848V13.876H12.864V12.876ZM6.348 13.376V20.288H7.348V13.376H6.348ZM6.848 20.788H12.864V19.788H6.848V20.788ZM2.516 32.576V8.32H1.516V32.576H2.516ZM2.016 8.82H12.704V7.82H2.016V8.82ZM12.704 8.82C17.1294 8.82 20.652 12.3697 20.652 16.8H21.652C21.652 11.8223 17.6866 7.82 12.704 7.82V8.82ZM20.652 16.8C20.652 21.1688 17.1269 24.78 12.704 24.78V25.78C17.6891 25.78 21.652 21.7112 21.652 16.8H20.652ZM12.704 24.78H6.848V25.78H12.704V24.78ZM6.348 25.28V32.576H7.348V25.28H6.348ZM6.848 32.076H2.016V33.076H6.848V32.076ZM23.0718 7.616V7.116H22.5718V7.616H23.0718ZM27.8718 7.616H28.3718V7.116H27.8718V7.616ZM27.8718 32.704V33.204H28.3718V32.704H27.8718ZM23.0718 32.704H22.5718V33.204H23.0718V32.704ZM23.0718 8.116H27.8718V7.116H23.0718V8.116ZM27.3718 7.616V32.704H28.3718V7.616H27.3718ZM27.8718 32.204H23.0718V33.204H27.8718V32.204ZM23.5718 32.704V7.616H22.5718V32.704H23.5718ZM42.9528 24.096L43.4529 24.1028L43.4527 24.0893L42.9528 24.096ZM43.2728 17.536L42.8943 17.8628L43.7728 18.8799V17.536H43.2728ZM43.2728 15.296V14.796H42.7728V15.296H43.2728ZM48.1368 15.296H48.6368V14.796H48.1368V15.296ZM48.1368 32.512L48.14 33.012L48.6368 33.0087V32.512H48.1368ZM43.2728 32.544H42.7728V33.0473L43.276 33.044L43.2728 32.544ZM43.2728 30.688H43.7728V29.3671L42.8981 30.3569L43.2728 30.688ZM39.0808 28.756C41.4313 28.756 43.4174 26.7142 43.4527 24.1028L42.4528 24.0892C42.4241 26.2138 40.8262 27.756 39.0808 27.756V28.756ZM43.4527 24.0893C43.4175 21.4483 41.4337 19.404 39.0808 19.404V20.404C40.8238 20.404 42.424 21.9437 42.4528 24.1027L43.4527 24.0893ZM39.0808 19.404C37.6032 19.404 36.4827 19.8961 35.7418 20.7785C35.0132 21.6464 34.7088 22.8243 34.7088 24.096H35.7088C35.7088 22.9677 35.9803 22.0496 36.5077 21.4215C37.0228 20.8079 37.8383 20.404 39.0808 20.404V19.404ZM34.7088 24.096C34.7088 25.3677 35.0132 26.539 35.7435 27.3995C36.4856 28.2739 37.6062 28.756 39.0808 28.756V27.756C37.8353 27.756 37.0199 27.3581 36.506 26.7525C35.9803 26.133 35.7088 25.2243 35.7088 24.096H34.7088ZM30.8448 24.096C30.8448 21.8463 31.5563 19.7852 32.8646 18.2937C34.1661 16.8101 36.0831 15.86 38.5688 15.86V14.86C35.8064 14.86 33.6114 15.9259 32.1129 17.6343C30.6212 19.3348 29.8448 21.6417 29.8448 24.096H30.8448ZM38.5688 15.86C40.1834 15.86 41.7733 16.5648 42.8943 17.8628L43.6512 17.2092C42.3402 15.6912 40.4741 14.86 38.5688 14.86V15.86ZM43.7728 17.536V15.296H42.7728V17.536H43.7728ZM43.2728 15.796H48.1368V14.796H43.2728V15.796ZM47.6368 15.296V32.512H48.6368V15.296H47.6368ZM48.1335 32.012L43.2695 32.044L43.276 33.044L48.14 33.012L48.1335 32.012ZM43.7728 32.544V30.688H42.7728V32.544H43.7728ZM42.8981 30.3569C41.7762 31.6264 40.1843 32.332 38.5688 32.332V33.332C40.4732 33.332 42.3373 32.5016 43.6474 31.0191L42.8981 30.3569ZM38.5688 32.332C36.0831 32.332 34.1661 31.3819 32.8646 29.8983C31.5563 28.4068 30.8448 26.3457 30.8448 24.096H29.8448C29.8448 26.5503 30.6212 28.8572 32.1129 30.5577C33.6114 32.2661 35.8064 33.332 38.5688 33.332V32.332ZM56.9403 23.744H57.4403V23.7337L57.4398 23.7235L56.9403 23.744ZM56.9403 32.544V33.044H57.4403V32.544H56.9403ZM52.1403 32.544H51.6403V33.044H52.1403V32.544ZM52.1403 15.264V14.764H51.6403V15.264H52.1403ZM56.9403 15.264H57.4403V14.764H56.9403V15.264ZM56.9403 17.376H56.4403L57.3839 17.6067L56.9403 17.376ZM69.2283 32.544V33.044H69.7283V32.544H69.2283ZM64.4283 32.544H63.9283V33.044H64.4283V32.544ZM64.9283 23.744C64.9283 22.5074 64.641 21.4016 63.8925 20.6055C63.1387 19.8036 62.0005 19.404 60.4923 19.404V20.404C61.832 20.404 62.6618 20.7564 63.164 21.2905C63.6715 21.8304 63.9283 22.6446 63.9283 23.744H64.9283ZM60.4923 19.404C58.2322 19.404 56.3327 21.1365 56.4407 23.7645L57.4398 23.7235C57.3558 21.6795 58.7843 20.404 60.4923 20.404V19.404ZM56.4403 23.744V32.544H57.4403V23.744H56.4403ZM56.9403 32.044H52.1403V33.044H56.9403V32.044ZM52.6403 32.544V15.264H51.6403V32.544H52.6403ZM52.1403 15.764H56.9403V14.764H52.1403V15.764ZM56.4403 15.264V17.376H57.4403V15.264H56.4403ZM57.3839 17.6067C57.7232 16.9541 58.3847 16.4883 59.1331 16.183C59.8784 15.8789 60.6383 15.764 61.0683 15.764V14.764C60.5062 14.764 59.6181 14.9051 58.7554 15.257C57.8958 15.6077 56.9893 16.1979 56.4966 17.1453L57.3839 17.6067ZM61.0683 15.764C63.0002 15.764 64.9185 16.2214 66.3422 17.3234C67.7449 18.4091 68.7283 20.1667 68.7283 22.912H69.7283C69.7283 19.8973 68.6316 17.8309 66.9543 16.5326C65.298 15.2506 63.1363 14.764 61.0683 14.764V15.764ZM68.7283 22.912V32.544H69.7283V22.912H68.7283ZM69.2283 32.044H64.4283V33.044H69.2283V32.044ZM64.9283 32.544V23.744H63.9283V32.544H64.9283ZM73.0578 15.072V14.572H72.5578V15.072H73.0578ZM77.7938 15.072H78.2938V14.572H77.7938V15.072ZM77.7938 32.704V33.204H78.2938V32.704H77.7938ZM73.0578 32.704H72.5578V33.204H73.0578V32.704ZM73.0578 15.572H77.7938V14.572H73.0578V15.572ZM77.2938 15.072V32.704H78.2938V15.072H77.2938ZM77.7938 32.204H73.0578V33.204H77.7938V32.204ZM73.5578 32.704V15.072H72.5578V32.704H73.5578ZM73.3978 8.896C73.3978 8.29674 73.5875 7.79436 73.9143 7.44618C74.2364 7.10305 74.7302 6.868 75.4258 6.868V5.868C74.4893 5.868 73.7191 6.19294 73.1852 6.76182C72.656 7.32564 72.3978 8.08725 72.3978 8.896H73.3978ZM75.4258 6.868C76.1213 6.868 76.6151 7.10305 76.9372 7.44618C77.264 7.79436 77.4538 8.29674 77.4538 8.896H78.4538C78.4538 8.08725 78.1955 7.32564 77.6663 6.76182C77.1324 6.19294 76.3622 5.868 75.4258 5.868V6.868ZM77.4538 8.896C77.4538 9.49525 77.264 9.99764 76.9372 10.3458C76.6151 10.6889 76.1213 10.924 75.4258 10.924V11.924C76.3622 11.924 77.1324 11.5991 77.6663 11.0302C78.1955 10.4664 78.4538 9.70474 78.4538 8.896H77.4538ZM75.4258 10.924C74.7302 10.924 74.2364 10.6889 73.9143 10.3458C73.5875 9.99764 73.3978 9.49525 73.3978 8.896H72.3978C72.3978 9.70474 72.656 10.4664 73.1852 11.0302C73.7191 11.5991 74.4893 11.924 75.4258 11.924V10.924Z" fill="black"/>
</svg>
