<svg width="81" height="40" viewBox="0 0 81 40" fill="none" xmlns="http://www.w3.org/2000/svg">
<path d="M12.864 20.288C14.752 20.288 16.288 18.688 16.288 16.8C16.288 14.912 14.752 13.376 12.864 13.376H6.848V20.288H12.864ZM2.016 32.576V8.32H12.704C17.408 8.32 21.152 12.096 21.152 16.8C21.152 21.44 17.408 25.28 12.704 25.28H6.848V32.576H2.016ZM23.0718 7.616H27.8718V32.704H23.0718V7.616ZM39.0808 28.256C41.1288 28.256 42.9208 26.464 42.9528 24.096C42.9208 21.696 41.1288 19.904 39.0808 19.904C36.3608 19.904 35.2088 21.696 35.2088 24.096C35.2088 26.496 36.3608 28.256 39.0808 28.256ZM30.3448 24.096C30.3448 19.392 33.3208 15.36 38.5688 15.36C40.3288 15.36 42.0568 16.128 43.2728 17.536V15.296H48.1368V32.512L43.2728 32.544V30.688C42.0568 32.064 40.3288 32.832 38.5688 32.832C33.3208 32.832 30.3448 28.8 30.3448 24.096ZM64.4283 23.744C64.4283 21.408 63.3403 19.904 60.4923 19.904C58.5083 19.904 56.8443 21.408 56.9403 23.744V32.544H52.1403V15.264H56.9403V17.376C57.7723 15.776 60.0763 15.264 61.0683 15.264C65.0683 15.264 69.2283 17.152 69.2283 22.912V32.544H64.4283V23.744ZM73.0578 15.072H77.7938V32.704H73.0578V15.072ZM72.8978 8.896C72.8978 7.488 73.7938 6.368 75.4258 6.368C77.0578 6.368 77.9538 7.488 77.9538 8.896C77.9538 10.304 77.0578 11.424 75.4258 11.424C73.7938 11.424 72.8978 10.304 72.8978 8.896Z" fill="#222222"/>
</svg>
